<svg width="20" height="21" viewBox="0 0 20 21" fill="none" xmlns="http://www.w3.org/2000/svg">
<path d="M6.08571 2.51429H5.88571C5.99571 2.51429 6.08571 2.42429 6.08571 2.31429V2.51429H13.6857V2.31429C13.6857 2.42429 13.7757 2.51429 13.8857 2.51429H13.6857V4.31429H15.4857V2.31429C15.4857 1.43179 14.7682 0.714285 13.8857 0.714285H5.88571C5.00321 0.714285 4.28571 1.43179 4.28571 2.31429V4.31429H6.08571V2.51429ZM18.6857 4.31429H1.08571C0.643214 4.31429 0.285714 4.67179 0.285714 5.11429V5.91429C0.285714 6.02429 0.375714 6.11429 0.485714 6.11429H1.99571L2.61321 19.1893C2.65321 20.0418 3.35821 20.7143 4.21071 20.7143H15.5607C16.4157 20.7143 17.1182 20.0443 17.1582 19.1893L17.7757 6.11429H19.2857C19.3957 6.11429 19.4857 6.02429 19.4857 5.91429V5.11429C19.4857 4.67179 19.1282 4.31429 18.6857 4.31429ZM15.3682 18.9143H4.40321L3.79821 6.11429H15.9732L15.3682 18.9143Z" fill="grey"/>
</svg>
